<svg fill="#000000" xmlns="http://www.w3.org/2000/svg"  viewBox="0 0 50 50" width="25px" height="25px"><path d="M 25 8 C 15.611 8 8 15.611 8 25 C 8 34.389 15.611 42 25 42 C 34.389 42 42 34.389 42 25 C 42 15.611 34.389 8 25 8 z M 25 9 C 33.837 9 41 16.163 41 25 C 41 33.837 33.837 41 25 41 C 16.163 41 9 33.837 9 25 C 9 16.163 16.163 9 25 9 z M 18.990234 18.490234 C 18.862234 18.490234 18.734219 18.539219 18.636719 18.636719 C 18.441719 18.831719 18.441719 19.14875 18.636719 19.34375 L 24.292969 25 L 18.636719 30.65625 C 18.441719 30.85125 18.441719 31.168281 18.636719 31.363281 C 18.831719 31.558281 19.14875 31.558281 19.34375 31.363281 L 25 25.707031 L 30.65625 31.363281 C 30.85125 31.558281 31.168281 31.558281 31.363281 31.363281 C 31.558281 31.168281 31.558281 30.85125 31.363281 30.65625 L 25.707031 25 L 31.363281 19.34375 C 31.558281 19.14875 31.558281 18.831719 31.363281 18.636719 C 31.168281 18.441719 30.85125 18.441719 30.65625 18.636719 L 25 24.292969 L 19.34375 18.636719 C 19.24625 18.539219 19.118234 18.490234 18.990234 18.490234 z"/></svg>