<svg fill="#000000" xmlns="http://www.w3.org/2000/svg"  viewBox="0 0 72 72" width="64px" height="64px"><path d="M58,29.5v13C58,56.875,56.875,58,42.5,58h-13C15.125,58,14,56.875,14,42.5v-13	C14,15.125,15.125,14,29.5,14h13C56.875,14,58,15.125,58,29.5z M45.485,41.243C45.231,40.989,42.943,38.7,40.243,36	c2.7-2.7,4.989-4.989,5.243-5.243c1.171-1.171,1.172-3.071,0-4.243c-1.172-1.172-3.071-1.172-4.243,0	C40.989,26.769,38.7,29.057,36,31.757c-2.7-2.7-4.989-4.989-5.243-5.243c-1.171-1.172-3.071-1.172-4.243,0	c-1.172,1.172-1.171,3.071,0,4.243c0.254,0.254,2.542,2.542,5.243,5.243c-2.7,2.7-4.989,4.989-5.243,5.243	c-1.171,1.172-1.172,3.071,0,4.243c1.172,1.172,3.071,1.171,4.243,0c0.254-0.254,2.542-2.542,5.243-5.243	c2.7,2.7,4.989,4.989,5.243,5.243c1.171,1.171,3.071,1.172,4.243,0C46.657,44.314,46.657,42.414,45.485,41.243z"/></svg>