<svg fill="#000000" xmlns="http://www.w3.org/2000/svg"  viewBox="0 0 100 100" width="400px" height="400px"><path d="M 50 14 C 30.129581 14 14 30.129595 14 50 C 14 69.870405 30.129581 86 50 86 C 69.870419 86 86 69.870405 86 50 C 86 30.129595 69.870419 14 50 14 z M 50 16 C 68.454015 16 83.444726 30.67518 83.974609 49 L 60.949219 49 C 60.441457 43.403714 55.72585 39 50 39 C 44.27415 39 39.558543 43.403714 39.050781 49 L 16.025391 49 C 16.555274 30.67518 31.545985 16 50 16 z M 50 41 C 54.982411 41 59 45.017592 59 50 C 59 54.982408 54.982411 59 50 59 C 45.017589 59 41 54.982408 41 50 C 41 45.017592 45.017589 41 50 41 z M 50 45 C 48.375001 45 47.093589 45.627378 46.251953 46.574219 C 45.410317 47.52106 45 48.763889 45 50 C 45 51.236111 45.410317 52.47894 46.251953 53.425781 C 47.093589 54.372622 48.375001 55 50 55 C 51.624999 55 52.906411 54.372622 53.748047 53.425781 C 54.589683 52.47894 55 51.236111 55 50 C 55 48.763889 54.589683 47.52106 53.748047 46.574219 C 52.906411 45.627378 51.624999 45 50 45 z M 50 46 C 51.374999 46 52.34359 46.497622 53.001953 47.238281 C 53.660316 47.97894 54 48.986111 54 50 C 54 51.013889 53.660316 52.02106 53.001953 52.761719 C 52.34359 53.502378 51.374999 54 50 54 C 48.625001 54 47.65641 53.502378 46.998047 52.761719 C 46.339684 52.02106 46 51.013889 46 50 C 46 48.986111 46.339684 47.97894 46.998047 47.238281 C 47.65641 46.497622 48.625001 46 50 46 z M 16.025391 51 L 39.050781 51 C 39.558543 56.596286 44.27415 61 50 61 C 55.72585 61 60.441457 56.596286 60.949219 51 L 83.974609 51 C 83.444726 69.32482 68.454015 84 50 84 C 31.545985 84 16.555274 69.32482 16.025391 51 z M 25.009766 66.994141 A 0.50005 0.50005 0 0 0 24.617188 67.787109 C 30.224235 75.774382 39.503124 81 50 81 C 56.619784 81 62.753345 78.918621 67.787109 75.380859 A 0.50005 0.50005 0 1 0 67.212891 74.5625 C 62.340655 77.986738 56.410216 80 50 80 C 39.834876 80 30.8625 74.943618 25.435547 67.212891 A 0.50005 0.50005 0 0 0 25.009766 66.994141 z M 74.974609 66.994141 A 0.50005 0.50005 0 0 0 74.564453 67.212891 C 74.334637 67.540787 74.084149 67.863916 73.830078 68.195312 A 0.50005 0.50005 0 1 0 74.623047 68.804688 C 74.874976 68.476084 75.13463 68.141213 75.382812 67.787109 A 0.50005 0.50005 0 0 0 74.974609 66.994141 z M 72.580078 69.994141 A 0.50005 0.50005 0 0 0 72.195312 70.164062 C 71.572744 70.849478 70.914382 71.503134 70.228516 72.130859 A 0.50043488 0.50043488 0 1 0 70.904297 72.869141 C 71.610431 72.222866 72.290116 71.546522 72.935547 70.835938 A 0.50005 0.50005 0 0 0 72.580078 69.994141 z"/></svg>